<svg width="185" height="40" viewBox="0 0 185 40" fill="none" xmlns="http://www.w3.org/2000/svg">
<path d="M32.3 0.749999C32.3 0.883332 32.0333 1.36667 31.5 2.2C31 3 30.35 4 29.55 5.2C28.75 6.4 27.8833 7.7 26.95 9.1C26.0167 10.4667 25.1167 11.7833 24.25 13.05C23.3833 14.2833 22.6167 15.3667 21.95 16.3C21.3167 17.2 20.9 17.7833 20.7 18.05C20.5667 18.2833 20.35 18.4 20.05 18.4C19.75 18.4 19.5 18.2667 19.3 18L7.3 1.3C7.2 1.2 7.15 1.06667 7.15 0.899997C7.15 0.666664 7.23333 0.483331 7.4 0.349998C7.6 0.183331 7.8 0.0999981 8 0.0999981C8.2 0.0999981 8.38333 0.199998 8.55 0.399997L20 16.3L30.85 0.349998C30.9833 0.116666 31.2 -5.96046e-07 31.5 -5.96046e-07C31.7 -5.96046e-07 31.8833 0.0833327 32.05 0.249999C32.2167 0.383333 32.3 0.549999 32.3 0.749999ZM20.6 39.25C20.6 39.45 20.5167 39.6333 20.35 39.8C20.2167 39.9333 20.05 40 19.85 40C19.65 40 19.4667 39.9333 19.3 39.8C19.1667 39.6333 19.1 39.45 19.1 39.25V25.95C18.8333 25.5833 18.2 24.7333 17.2 23.4C16.2 22.0333 15.0167 20.4333 13.65 18.6C12.3167 16.7667 10.9 14.8333 9.4 12.8C7.93333 10.7333 6.56667 8.83333 5.3 7.1C4.03333 5.33333 2.98333 3.86666 2.15 2.7C1.35 1.5 0.95 0.833331 0.95 0.699999C0.95 0.499998 1.03333 0.33333 1.2 0.199997C1.4 0.0666652 1.6 -5.96046e-07 1.8 -5.96046e-07C2.03333 -5.96046e-07 2.23333 0.0999991 2.4 0.299999L20.45 25.25C20.55 25.4167 20.6 25.5667 20.6 25.7V39.25ZM61.3309 39.25C61.3309 39.45 61.2475 39.6333 61.0809 39.8C60.9475 39.9333 60.7809 40 60.5809 40C60.1809 40 59.9309 39.8333 59.8309 39.5L45.2809 2.8L43.6309 7.05C43.7642 7.31667 44.0475 7.98333 44.4809 9.05C44.9142 10.1167 45.4475 11.4333 46.0809 13C46.7142 14.5333 47.3975 16.25 48.1309 18.15C48.8642 20.0167 49.6142 21.9167 50.3809 23.85C51.1475 25.7833 51.8809 27.6667 52.5809 29.5C53.3142 31.3333 53.9475 32.9667 54.4809 34.4C55.0475 35.8333 55.4975 37 55.8309 37.9C56.1642 38.7667 56.3309 39.2167 56.3309 39.25C56.3309 39.6167 56.1642 39.85 55.8309 39.95C55.7642 39.95 55.7142 39.9667 55.6809 40C55.6475 40 55.5975 40 55.5309 40C55.1975 40 54.9642 39.8333 54.8309 39.5L42.8309 9.2L31.1809 39.5C31.0475 39.8333 30.7975 40 30.4309 40C30.3642 40 30.3142 40 30.2809 40C30.2809 39.9667 30.2475 39.95 30.1809 39.95C29.8475 39.85 29.6809 39.6 29.6809 39.2C29.6809 39.1667 29.8809 38.6167 30.2809 37.55C30.6809 36.4833 31.1975 35.1 31.8309 33.4C32.4975 31.7 33.2475 29.75 34.0809 27.55C34.9475 25.35 35.8142 23.1 36.6809 20.8C37.5809 18.4667 38.4642 16.1667 39.3309 13.9C40.2309 11.6333 41.0309 9.56667 41.7309 7.7C42.4642 5.8 43.0809 4.21667 43.5809 2.95C44.0809 1.65 44.3975 0.816665 44.5309 0.45C44.6642 0.149999 44.9142 -5.96046e-07 45.2809 -5.96046e-07C45.6475 -5.96046e-07 45.8809 0.149999 45.9809 0.45C46.1142 0.816665 46.4309 1.65 46.9309 2.95C47.4642 4.21667 48.0975 5.8 48.8309 7.7C49.5642 9.56667 50.3809 11.6333 51.2809 13.9C52.2142 16.1667 53.1309 18.4667 54.0309 20.8C54.9642 23.1 55.8642 25.35 56.7309 27.55C57.6309 29.75 58.4142 31.7167 59.0809 33.45C59.7475 35.15 60.2809 36.5333 60.6809 37.6C61.1142 38.6667 61.3309 39.2167 61.3309 39.25ZM83.6273 0.749999C83.6273 0.949998 83.544 1.13333 83.3773 1.3C83.244 1.43333 83.0773 1.5 82.8773 1.5H58.2773C58.0773 1.5 57.894 1.43333 57.7273 1.3C57.594 1.13333 57.5273 0.949998 57.5273 0.749999C57.5273 0.549999 57.594 0.383333 57.7273 0.249999C57.894 0.0833327 58.0773 -5.96046e-07 58.2773 -5.96046e-07H82.8773C83.0773 -5.96046e-07 83.244 0.0833327 83.3773 0.249999C83.544 0.383333 83.6273 0.549999 83.6273 0.749999ZM83.8773 5.6C83.8773 5.8 83.794 5.98333 83.6273 6.15C83.494 6.31666 83.3273 6.4 83.1273 6.4H71.5273V39.25C71.5273 39.45 71.444 39.6333 71.2773 39.8C71.1107 39.9333 70.9273 40 70.7273 40C70.5273 40 70.344 39.9333 70.1773 39.8C70.0107 39.6667 69.9273 39.4833 69.9273 39.25V6.4H58.2773C58.0773 6.4 57.894 6.31666 57.7273 6.15C57.594 5.98333 57.5273 5.8 57.5273 5.6C57.5273 5.4 57.594 5.21667 57.7273 5.05C57.8607 4.85 58.044 4.75 58.2773 4.75H83.1273C83.3607 4.75 83.544 4.85 83.6773 5.05C83.8107 5.21667 83.8773 5.4 83.8773 5.6ZM111.819 39.25C111.819 39.45 111.736 39.6333 111.569 39.8C111.436 39.9333 111.269 40 111.069 40C110.669 40 110.419 39.8333 110.319 39.5L95.7691 2.8L94.1191 7.05C94.2525 7.31667 94.5358 7.98333 94.9691 9.05C95.4025 10.1167 95.9358 11.4333 96.5691 13C97.2025 14.5333 97.8858 16.25 98.6191 18.15C99.3525 20.0167 100.102 21.9167 100.869 23.85C101.636 25.7833 102.369 27.6667 103.069 29.5C103.802 31.3333 104.436 32.9667 104.969 34.4C105.536 35.8333 105.986 37 106.319 37.9C106.652 38.7667 106.819 39.2167 106.819 39.25C106.819 39.6167 106.652 39.85 106.319 39.95C106.252 39.95 106.202 39.9667 106.169 40C106.136 40 106.086 40 106.019 40C105.686 40 105.452 39.8333 105.319 39.5L93.3191 9.2L81.6691 39.5C81.5358 39.8333 81.2858 40 80.9191 40C80.8525 40 80.8025 40 80.7691 40C80.7691 39.9667 80.7358 39.95 80.6691 39.95C80.3358 39.85 80.1691 39.6 80.1691 39.2C80.1691 39.1667 80.3691 38.6167 80.7691 37.55C81.1691 36.4833 81.6858 35.1 82.3191 33.4C82.9858 31.7 83.7358 29.75 84.5691 27.55C85.4358 25.35 86.3025 23.1 87.1691 20.8C88.0691 18.4667 88.9525 16.1667 89.8191 13.9C90.7191 11.6333 91.5191 9.56667 92.2191 7.7C92.9525 5.8 93.5691 4.21667 94.0691 2.95C94.5691 1.65 94.8858 0.816665 95.0191 0.45C95.1525 0.149999 95.4025 -5.96046e-07 95.7691 -5.96046e-07C96.1358 -5.96046e-07 96.3691 0.149999 96.4691 0.45C96.6025 0.816665 96.9191 1.65 97.4191 2.95C97.9525 4.21667 98.5858 5.8 99.3191 7.7C100.052 9.56667 100.869 11.6333 101.769 13.9C102.702 16.1667 103.619 18.4667 104.519 20.8C105.452 23.1 106.352 25.35 107.219 27.55C108.119 29.75 108.902 31.7167 109.569 33.45C110.236 35.15 110.769 36.5333 111.169 37.6C111.602 38.6667 111.819 39.2167 111.819 39.25ZM144.936 8.9C144.936 10.0667 144.736 11.1833 144.336 12.25C143.936 13.2833 143.386 14.2 142.686 15C141.986 15.8 141.136 16.4667 140.136 17C139.169 17.5333 138.102 17.8833 136.936 18.05C136.769 18.0833 136.586 18.1 136.386 18.1C136.219 18.1 136.052 18.1 135.886 18.1H127.186L127.136 21.45H136.286C136.586 21.45 136.819 21.6 136.986 21.9C137.086 22.1667 137.352 22.7667 137.786 23.7C138.219 24.6333 138.719 25.7333 139.286 27C139.886 28.2667 140.502 29.6 141.136 31C141.802 32.4 142.402 33.7 142.936 34.9C143.502 36.1 143.969 37.1167 144.336 37.95C144.702 38.75 144.886 39.2 144.886 39.3C144.886 39.5333 144.802 39.7167 144.636 39.85C144.469 39.95 144.286 40 144.086 40C143.752 40 143.519 39.85 143.386 39.55L135.786 23H126.986V39C126.986 39.2333 126.902 39.4167 126.736 39.55C126.569 39.6833 126.386 39.75 126.186 39.75C125.986 39.75 125.802 39.6833 125.636 39.55C125.502 39.3833 125.436 39.2 125.436 39V1.5H122.186V39.25C122.186 39.4833 122.102 39.6667 121.936 39.8C121.769 39.9333 121.586 40 121.386 40C121.186 40 121.002 39.9333 120.836 39.8C120.702 39.6333 120.636 39.45 120.636 39.25V0.749999C120.636 0.249999 120.886 -5.96046e-07 121.386 -5.96046e-07H135.886C137.152 -5.96046e-07 138.336 0.233333 139.436 0.699999C140.536 1.13333 141.486 1.75 142.286 2.55C143.119 3.35 143.769 4.3 144.236 5.4C144.702 6.46667 144.936 7.63333 144.936 8.9ZM143.386 8.9C143.386 7.86666 143.186 6.9 142.786 6C142.386 5.1 141.836 4.31667 141.136 3.65C140.469 2.98333 139.686 2.46667 138.786 2.1C137.886 1.7 136.919 1.5 135.886 1.5H126.986V16.55H135.886C136.919 16.55 137.886 16.35 138.786 15.95C139.719 15.55 140.519 15 141.186 14.3C141.886 13.6 142.419 12.8 142.786 11.9C143.186 10.9667 143.386 9.96666 143.386 8.9ZM184.28 39.25C184.28 39.45 184.197 39.6333 184.03 39.8C183.897 39.9333 183.73 40 183.53 40C183.13 40 182.88 39.8333 182.78 39.5L168.23 2.8L166.58 7.05C166.713 7.31667 166.997 7.98333 167.43 9.05C167.863 10.1167 168.397 11.4333 169.03 13C169.663 14.5333 170.347 16.25 171.08 18.15C171.813 20.0167 172.563 21.9167 173.33 23.85C174.097 25.7833 174.83 27.6667 175.53 29.5C176.263 31.3333 176.897 32.9667 177.43 34.4C177.997 35.8333 178.447 37 178.78 37.9C179.113 38.7667 179.28 39.2167 179.28 39.25C179.28 39.6167 179.113 39.85 178.78 39.95C178.713 39.95 178.663 39.9667 178.63 40C178.597 40 178.547 40 178.48 40C178.147 40 177.913 39.8333 177.78 39.5L165.78 9.2L154.13 39.5C153.997 39.8333 153.747 40 153.38 40C153.313 40 153.263 40 153.23 40C153.23 39.9667 153.197 39.95 153.13 39.95C152.797 39.85 152.63 39.6 152.63 39.2C152.63 39.1667 152.83 38.6167 153.23 37.55C153.63 36.4833 154.147 35.1 154.78 33.4C155.447 31.7 156.197 29.75 157.03 27.55C157.897 25.35 158.763 23.1 159.63 20.8C160.53 18.4667 161.413 16.1667 162.28 13.9C163.18 11.6333 163.98 9.56667 164.68 7.7C165.413 5.8 166.03 4.21667 166.53 2.95C167.03 1.65 167.347 0.816665 167.48 0.45C167.613 0.149999 167.863 -5.96046e-07 168.23 -5.96046e-07C168.597 -5.96046e-07 168.83 0.149999 168.93 0.45C169.063 0.816665 169.38 1.65 169.88 2.95C170.413 4.21667 171.047 5.8 171.78 7.7C172.513 9.56667 173.33 11.6333 174.23 13.9C175.163 16.1667 176.08 18.4667 176.98 20.8C177.913 23.1 178.813 25.35 179.68 27.55C180.58 29.75 181.363 31.7167 182.03 33.45C182.697 35.15 183.23 36.5333 183.63 37.6C184.063 38.6667 184.28 39.2167 184.28 39.25Z" fill="white"/>
</svg>
